<?xml version="1.0" standalone="no"?>
<!DOCTYPE svg PUBLIC "-//W3C//DTD SVG 1.1//EN" "http://www.w3.org/Graphics/SVG/1.1/DTD/svg11.dtd" >
<svg xmlns="http://www.w3.org/2000/svg">
<metadata></metadata>
<defs>
<font id="qanelasbold" horiz-adv-x="548" >
<font-face units-per-em="2048" ascent="1638" descent="-410" />
<missing-glyph horiz-adv-x="512" />
<glyph unicode="&#xfb01;" horiz-adv-x="1105" d="M10 770v254h148v10q0 428 479 428q111 0 242 -28v-242q-138 16 -242 16q-109 0 -162 -37.5t-53 -136.5v-10h565v-1024h-264v770h-301v-770h-264v770h-148z" />
<glyph unicode="&#xfb02;" horiz-adv-x="1105" d="M10 770v254h148v10q0 428 479 428q139 0 350 -43v-1419h-264v1229q-31 2 -86 2q-215 0 -215 -197v-10h170v-254h-170v-770h-264v770h-148z" />
<glyph horiz-adv-x="0" />
<glyph horiz-adv-x="682" />
<glyph unicode=" "  horiz-adv-x="512" />
<glyph unicode="&#x09;" horiz-adv-x="512" />
<glyph unicode="&#xa0;" horiz-adv-x="512" />
<glyph unicode="!" d="M115 1024v410h317v-410l-53 -543h-209zM129 0v293h291v-293h-291z" />
<glyph unicode="&#x22;" horiz-adv-x="774" d="M88 1434h250l-35 -471h-180zM436 1434h250l-35 -471h-180z" />
<glyph unicode="#" horiz-adv-x="1261" d="M47 426l33 199h223l31 184h-225l32 201h228l53 321h207l-54 -321h209l54 321h209l-54 -321h221l-32 -201h-224l-30 -184h225l-33 -199h-225l-53 -324h-209l55 324h-209l-55 -324h-207l53 324h-223zM512 625h209l31 184h-209z" />
<glyph unicode="$" horiz-adv-x="1116" d="M51 442h283q0 -158 158 -188v350q-50 18 -85.5 32t-82 37t-78 46.5t-65.5 57.5t-54.5 72.5t-33.5 89.5t-13 110q0 91 33 165.5t90.5 124.5t130.5 80t158 39v180h137v-182q85 -10 158 -42.5t131 -87.5t91 -139t33 -188h-276q0 150 -137 181v-349q45 -16 69 -25t66.5 -27 t67.5 -31.5t61 -36.5t57 -44.5t46 -52t38 -63t22 -74.5t9 -88q0 -182 -124.5 -291t-311.5 -123v-180h-137v182q-93 10 -172 43t-139.5 89t-95 141.5t-34.5 191.5zM360 1049q0 -54 34 -92t98 -70v295q-62 -12 -97 -47.5t-35 -85.5zM629 250q74 12 113.5 49t39.5 90 q0 55 -39 93.5t-114 70.5v-303z" />
<glyph unicode="%" horiz-adv-x="1634" d="M92 1124q0 141 99 239.5t247 98.5q147 0 245.5 -97.5t98.5 -240.5q0 -142 -98 -240t-246 -98t-247 98t-99 240zM188 0l1006 1434h252l-1008 -1434h-250zM309 1124q0 -56 36 -93.5t91 -37.5q56 0 92.5 38t36.5 93t-36.5 92t-92.5 37q-55 0 -91 -37t-36 -92zM852 313 q0 141 99 239.5t247 98.5q146 0 245 -98.5t99 -239.5t-99 -239.5t-245 -98.5q-148 0 -247 98.5t-99 239.5zM1069 313q0 -56 36 -93.5t91 -37.5q56 0 92.5 38.5t36.5 92.5q0 56 -36.5 93.5t-92.5 37.5q-55 0 -91 -37.5t-36 -93.5z" />
<glyph unicode="&#x26;" horiz-adv-x="1472" d="M88 406q0 115 54.5 217t154.5 172q-84 120 -84 254q0 181 134.5 297t336.5 116q95 0 180 -28t153 -83t108 -145.5t40 -206.5h-280q0 93 -56 141t-145 48q-79 0 -133.5 -41.5t-54.5 -116.5q0 -36 23.5 -78t45.5 -66.5t64 -66.5l364 -364q47 107 47 239h281 q0 -111 -34 -225t-101 -209l260 -260h-350l-86 86q-174 -115 -406 -115q-144 0 -260 51t-186 151.5t-70 232.5zM373 430q0 -90 65.5 -144.5t188.5 -54.5q106 0 190 41l-352 342q-92 -68 -92 -184z" />
<glyph unicode="'" horiz-adv-x="425" d="M88 1434h250l-35 -471h-180z" />
<glyph unicode="(" horiz-adv-x="628" d="M109 717q0 469 225 921h264q-225 -452 -225 -921q0 -470 225 -922h-264q-225 452 -225 922z" />
<glyph unicode=")" horiz-adv-x="628" d="M31 -205q225 452 225 922q0 469 -225 921h264q225 -452 225 -921q0 -470 -225 -922h-264z" />
<glyph unicode="*" horiz-adv-x="815" d="M109 1083v164l184 -16l-111 145l137 86l89 -172l88 172l139 -86l-113 -145l187 16v-164l-187 15l113 -144l-139 -86l-88 172l-89 -172l-137 86l111 144z" />
<glyph unicode="+" horiz-adv-x="1136" d="M109 594v248h335v336h248v-336h338v-248h-338v-338h-248v338h-335z" />
<glyph unicode="," d="M129 0v293h291v-293q0 -130 -77 -206t-214 -79v119q71 3 103 41t32 125h-135z" />
<glyph unicode="-" horiz-adv-x="1034" d="M133 492v253h768v-253h-768z" />
<glyph unicode="." d="M129 0v293h291v-293h-291z" />
<glyph unicode="/" horiz-adv-x="1071" d="M68 -205l819 1843h117l-820 -1843h-116z" />
<glyph unicode="0" horiz-adv-x="1290" d="M72 717q0 337 152 541t421 204q180 0 311 -94.5t197 -261.5t66 -389q0 -338 -152 -542t-422 -204q-179 0 -309.5 94.5t-197 262t-66.5 389.5zM354 717q0 -229 73.5 -349t217.5 -120t218.5 120.5t74.5 348.5q0 229 -74.5 350t-218.5 121t-217.5 -121t-73.5 -350z" />
<glyph unicode="1" horiz-adv-x="788" d="M23 965v284l335 185h283v-1434h-283v1151z" />
<glyph unicode="2" horiz-adv-x="1091" d="M68 0v211l485 491q168 168 168 299q0 89 -48.5 138t-129.5 49q-91 0 -143 -48t-52 -145h-280q0 117 39.5 209t106.5 147t149 83t174 28q90 0 172 -28.5t148.5 -83t106.5 -145t40 -204.5q0 -116 -63 -232t-165 -216l-289 -281h539v-272h-958z" />
<glyph unicode="3" horiz-adv-x="1116" d="M27 442h280q0 -89 60.5 -141.5t171.5 -52.5q109 0 169 52.5t60 141.5q0 88 -60.5 141.5t-168.5 53.5h-154v186l260 346h-563v265h901v-234l-264 -348q148 -43 240 -150.5t92 -259.5q0 -148 -72.5 -257t-187 -161.5t-252.5 -52.5t-252.5 52.5t-187 161.5t-72.5 257z" />
<glyph unicode="4" horiz-adv-x="1198" d="M43 244v262l477 928h303l-475 -928h389v340h285v-340h154v-262h-154v-244h-285v244h-694z" />
<glyph unicode="5" horiz-adv-x="1142" d="M59 442h281q0 -89 61 -141.5t170 -52.5t169.5 52.5t60.5 141.5q0 88 -61 141.5t-169 53.5h-446l57 797h834v-265h-572l-18 -258h160q102 0 191.5 -30.5t158 -88t108 -148t39.5 -202.5q0 -148 -72.5 -257t-187 -161.5t-252.5 -52.5t-252.5 52.5t-187 161.5t-72.5 257z" />
<glyph unicode="6" horiz-adv-x="1132" d="M47 471q0 167 84 289l447 674h323l-319 -467q223 -5 363 -143t140 -353q0 -220 -145 -360t-375 -140t-374 140t-144 360zM328 471q0 -106 67.5 -169.5t169.5 -63.5q103 0 171.5 63.5t68.5 169.5q0 105 -68.5 168t-171.5 63t-170 -62.5t-67 -168.5z" />
<glyph unicode="7" horiz-adv-x="1003" d="M27 1163v271h925v-240l-485 -1194h-299l473 1163h-614z" />
<glyph unicode="8" horiz-adv-x="1163" d="M68 399q0 111 51 200t147 146q-151 108 -151 297q0 101 37.5 182t102 132t148 78.5t179.5 27.5t179.5 -27.5t147.5 -78.5t101 -132t37 -182q0 -189 -150 -297q96 -57 147.5 -146.5t51.5 -199.5q0 -198 -138 -313t-376 -115q-239 0 -376.5 115t-137.5 313zM348 436 q0 -94 65 -146t169 -52t168.5 52t64.5 146q0 93 -64.5 145t-168.5 52t-169 -52t-65 -145zM397 1028q0 -77 52 -123.5t133 -46.5t132.5 46.5t51.5 123.5q0 78 -51.5 123t-132.5 45t-133 -45t-52 -123z" />
<glyph unicode="9" horiz-adv-x="1132" d="M47 965q0 220 144.5 358.5t373.5 138.5q231 0 375.5 -138.5t144.5 -358.5q0 -166 -86 -291h2l-446 -674h-324l318 467q-223 5 -362.5 143t-139.5 355zM328 965q0 -106 68 -170t169 -64q104 0 172 64t68 170t-68 168.5t-172 62.5q-101 0 -169 -63t-68 -168z" />
<glyph unicode=":" d="M129 0v293h291v-293h-291zM129 733v291h291v-291h-291z" />
<glyph unicode=";" d="M129 0v293h291v-293q0 -130 -77 -206t-214 -79v119q71 3 103 41t32 125h-135zM129 733v291h291v-291h-291z" />
<glyph unicode="&#x3c;" horiz-adv-x="1081" d="M92 600v236l897 389v-275l-598 -233l598 -232v-274z" />
<glyph unicode="=" horiz-adv-x="1075" d="M92 381v248h891v-248h-891zM92 805v248h891v-248h-891z" />
<glyph unicode="&#x3e;" horiz-adv-x="1081" d="M92 211v274l596 232l-596 233v275l897 -389v-236z" />
<glyph unicode="?" horiz-adv-x="1134" d="M68 999q0 114 40.5 204t110.5 145.5t159 84.5t191 29q87 0 168 -26.5t146 -75.5t104 -127t39 -174q0 -72 -25.5 -137t-63.5 -109.5t-83 -90t-83 -80t-63.5 -77t-25.5 -84.5h-281q0 63 25.5 120.5t63.5 98.5t83 84.5t83 79t63.5 81.5t25.5 93q0 71 -48.5 110.5 t-137.5 39.5q-96 0 -153.5 -49t-57.5 -140h-280zM395 0v293h293v-293h-293z" />
<glyph unicode="@" horiz-adv-x="1595" d="M68 512q0 203 96.5 372.5t268 269t380.5 99.5q133 0 249.5 -40t201 -109t145.5 -158.5t91 -190t30 -202.5q0 -214 -92 -329t-234 -115q-103 0 -171.5 42.5t-98.5 120.5q-80 -96 -203 -96q-131 0 -216 95.5t-85 240.5t85 240.5t216 95.5q111 0 187 -76v53h219v-473 q0 -149 118 -149q88 0 142.5 87.5t54.5 262.5t-84 320t-231 228t-324 83q-185 0 -338.5 -88t-242.5 -242.5t-89 -341.5q0 -143 53.5 -268t146.5 -213.5t224.5 -139.5t282.5 -51q195 0 332 51v-73q-136 -47 -332 -47q-221 0 -399.5 95t-280.5 264.5t-102 381.5zM653 512 q0 -61 37 -100t96 -39q57 0 93 39t36 100q0 63 -36 101t-93 38q-59 0 -96 -38t-37 -101z" />
<glyph unicode="A" horiz-adv-x="1337" d="M6 0l488 1434h350l487 -1434h-307l-82 258h-549l-82 -258h-305zM477 522h381l-190 598z" />
<glyph unicode="B" horiz-adv-x="1402" d="M133 0v1434h283h313q184 0 304 -110.5t120 -276.5q0 -93 -53 -175q114 -59 181 -169t67 -246q0 -194 -129.5 -325.5t-323.5 -131.5h-694h-68zM416 264h442q100 0 153.5 58t53.5 149q0 92 -53 149.5t-152 57.5h-444v-414zM416 928h411q43 43 43 104t-38 99t-103 38h-313 v-241z" />
<glyph unicode="C" horiz-adv-x="1540" d="M68 717q0 208 95 378t266 268.5t384 98.5q255 0 450 -151t246 -389h-297q-38 121 -147.5 193.5t-251.5 72.5q-209 0 -337 -131t-128 -340q0 -207 128 -338t337 -131q142 0 251.5 71.5t147.5 192.5h297q-51 -237 -245.5 -389t-450.5 -152q-213 0 -384 99t-266 269.5 t-95 377.5z" />
<glyph unicode="D" horiz-adv-x="1501" d="M133 0v1434h283h327q146 0 274.5 -55.5t219.5 -151.5t144 -228.5t53 -281.5t-53 -281.5t-144 -228.5t-219.5 -151.5t-274.5 -55.5h-518h-92zM416 270h327q186 0 303 124.5t117 322.5t-117 322t-303 124h-327v-893z" />
<glyph unicode="E" horiz-adv-x="1050" d="M133 0v1434h283h557v-271h-557v-307h506v-264h-506v-322h567v-270h-758h-92z" />
<glyph unicode="F" horiz-adv-x="1030" d="M133 0v1434h283h557v-271h-557v-364h542v-271h-542v-528h-283z" />
<glyph unicode="G" horiz-adv-x="1607" d="M68 717q0 208 95 378t265.5 268.5t382.5 98.5q252 0 447 -146t247 -364h-295q-41 101 -151 168.5t-248 67.5q-208 0 -335.5 -131.5t-127.5 -339.5q0 -217 130 -351.5t333 -134.5q159 0 271 75.5t141 213.5h-398v250h680v-250v-520h-266v180q-74 -101 -191 -155t-268 -54 q-200 0 -364 99t-256 269.5t-92 377.5z" />
<glyph unicode="H" horiz-adv-x="1306" d="M133 0v1434h283v-562h475v562h283v-1434h-283v602h-475v-602h-283z" />
<glyph unicode="I" d="M133 0v1434h283v-1434h-283z" />
<glyph unicode="J" horiz-adv-x="1101" d="M27 424v37h280v-37q0 -87 52.5 -131.5t148.5 -44.5q95 0 147 44.5t52 131.5v1010h282v-1010q0 -112 -40 -200.5t-108 -142.5t-153 -82t-180 -28q-96 0 -181 28t-153 82t-107.5 142.5t-39.5 200.5z" />
<glyph unicode="K" horiz-adv-x="1259" d="M133 0v1434h283v-633l491 633h326l-531 -699l551 -735h-325l-512 674v-674h-283z" />
<glyph unicode="L" horiz-adv-x="972" d="M133 0v1434h283v-1164h532v-270h-815z" />
<glyph unicode="M" horiz-adv-x="1669" d="M133 0v1434h283h39l381 -877l378 877h322v-1434h-281v963l-317 -734h-205l-317 734v-963h-283z" />
<glyph unicode="N" horiz-adv-x="1320" d="M133 0v1434h215l559 -885v885h281v-1434h-215l-557 887v-887h-283z" />
<glyph unicode="O" horiz-adv-x="1622" d="M68 717q0 206 99 377.5t269.5 269.5t374.5 98t375 -98t270.5 -269.5t99.5 -377.5t-99.5 -377.5t-270.5 -270t-375 -98.5q-153 0 -290.5 58t-236.5 157.5t-157.5 238t-58.5 292.5zM348 717q0 -204 133 -336.5t330 -132.5t330 132.5t133 336.5q0 205 -133 338t-330 133 t-330 -133t-133 -338z" />
<glyph unicode="P" horiz-adv-x="1204" d="M133 0v1434h283h252q203 0 344 -139.5t141 -336.5q0 -199 -141 -338t-344 -139h-252v-481h-283zM416 745h252q86 0 144 61.5t58 151.5q0 89 -58 150t-144 61h-252v-424z" />
<glyph unicode="Q" horiz-adv-x="1632" d="M68 717q0 155 58.5 293.5t158 237t237 156.5t289.5 58t289.5 -58t237.5 -156.5t159 -237t59 -293.5q0 -138 -47.5 -263.5t-132.5 -224.5l158 -178l-207 -172l-162 182q-164 -90 -354 -90q-152 0 -289.5 58t-237 157.5t-158 238t-58.5 292.5zM348 717q0 -203 133.5 -336 t329.5 -133q95 0 166 28l-164 187l207 170l170 -193q84 120 84 277q0 135 -62 243.5t-167.5 168t-233.5 59.5t-233.5 -59.5t-167.5 -168t-62 -243.5z" />
<glyph unicode="R" horiz-adv-x="1290" d="M133 0v1434h283h260q130 0 240 -64t173.5 -173.5t63.5 -238.5q0 -132 -74 -243.5t-194 -169.5l442 -545h-332l-405 498h-174v-498h-283zM416 745h260q80 0 137 62t57 151t-57 150t-137 61h-260v-424z" />
<glyph unicode="S" horiz-adv-x="1118" d="M51 442h283q0 -194 241 -194q103 0 157 39.5t54 103.5q0 37 -18.5 66t-57.5 52.5t-76.5 39.5t-98.5 37q-166 60 -232 96q-179 98 -215 263q-10 47 -10 99q0 99 39 180t104.5 132t148 78.5t173.5 27.5q96 0 181.5 -28.5t153.5 -83.5t108 -145.5t40 -205.5h-281 q0 93 -52 141t-150 48q-86 0 -135.5 -40t-49.5 -104q0 -38 16.5 -67.5t51 -53.5t71 -41t93.5 -38q165 -59 216 -83q180 -85 234 -221q27 -67 27 -149q0 -100 -39.5 -181t-107 -132.5t-156 -79t-189.5 -27.5q-108 0 -201.5 28.5t-166.5 85t-114.5 148t-41.5 209.5z" />
<glyph unicode="T" horiz-adv-x="1024" d="M27 1163v271h626h346v-271h-346v-1163h-282v1163h-344z" />
<glyph unicode="U" horiz-adv-x="1269" d="M113 438v996h282v-973q0 -102 59 -157.5t181 -55.5q242 0 242 213v973h280v-996q0 -147 -71 -254.5t-187.5 -160t-263.5 -52.5t-263.5 52.5t-187.5 160t-71 254.5z" />
<glyph unicode="V" horiz-adv-x="1294" d="M6 1434h305l336 -1104l336 1104h307l-467 -1434h-350z" />
<glyph unicode="W" horiz-adv-x="1822" d="M6 1434h293l285 -1076l204 732l-98 344h262l287 -1076l287 1076h293l-410 -1434h-311l-187 655l-186 -655h-311z" />
<glyph unicode="X" horiz-adv-x="1228" d="M27 0l428 737l-406 697h320l245 -424l248 424h318l-406 -697l430 -737h-319l-271 463l-270 -463h-317z" />
<glyph unicode="Y" horiz-adv-x="1230" d="M6 1434h320l290 -525l291 525h320l-471 -797v-637h-281v637z" />
<glyph unicode="Z" horiz-adv-x="1095" d="M74 0v225l596 938h-582v271h942v-224l-598 -940h610v-270h-968z" />
<glyph unicode="[" horiz-adv-x="593" d="M109 -205v1843h264h221v-254h-221v-1335h221v-254h-373h-112z" />
<glyph unicode="\" horiz-adv-x="1071" d="M68 1638h116l820 -1843h-117z" />
<glyph unicode="]" horiz-adv-x="593" d="M0 49h223v1335h-223v254h487v-1843h-264h-223v254z" />
<glyph unicode="^" horiz-adv-x="1146" d="M82 758l391 676h201l391 -676h-285l-207 372l-206 -372h-285z" />
<glyph unicode="_" horiz-adv-x="1064" d="M68 -96h931v-254h-931v254z" />
<glyph unicode="`" horiz-adv-x="563" d="M41 1434l227 -281h254l-164 281h-317z" />
<glyph unicode="a" horiz-adv-x="1042" d="M68 295q0 78 28 140.5t76 101t109.5 59t130.5 20.5q174 0 278 -90v109q0 172 -160 172q-72 0 -114.5 -35.5t-42.5 -95.5h-258q0 175 119.5 276t295.5 101q86 0 161 -26t133 -75t91 -126.5t33 -174.5v-651h-258v88q-96 -117 -278 -117q-145 0 -244.5 85t-99.5 239z M332 295q0 -58 42.5 -92.5t127.5 -34.5q86 0 137 35.5t51 91.5q0 59 -50.5 93t-137.5 34q-85 0 -127.5 -34.5t-42.5 -92.5z" />
<glyph unicode="b" horiz-adv-x="1282" d="M121 0v1434h264v-531q117 150 332 150q135 0 250 -71t182.5 -195.5t67.5 -274.5t-67.5 -274.5t-182.5 -195.5t-250 -71q-215 0 -332 150v-121h-264zM385 512q0 -128 80 -208.5t203 -80.5q124 0 204 80.5t80 208.5t-80 208.5t-204 80.5q-123 0 -203 -80.5t-80 -208.5z" />
<glyph unicode="c" horiz-adv-x="1159" d="M68 512q0 151 69.5 274.5t193.5 195t277 71.5q190 0 333.5 -113.5t178.5 -288.5h-278q-28 65 -90.5 103.5t-143.5 38.5q-118 0 -197 -79.5t-79 -201.5q0 -121 79 -200t197 -79q82 0 145 38t89 104h278q-35 -177 -178.5 -290.5t-333.5 -113.5q-153 0 -277 71.5t-193.5 195 t-69.5 274.5z" />
<glyph unicode="d" horiz-adv-x="1284" d="M68 512q0 227 146 384t351 157q213 0 334 -150v531h264v-1434h-264v121q-121 -150 -334 -150q-205 0 -351 157t-146 384zM332 512q0 -128 79.5 -208.5t202.5 -80.5q124 0 204.5 80.5t80.5 208.5t-80.5 208.5t-204.5 80.5q-123 0 -202.5 -80.5t-79.5 -208.5z" />
<glyph unicode="e" horiz-adv-x="1179" d="M68 512q0 152 67 275t191.5 194.5t283.5 71.5q147 0 264.5 -72.5t181.5 -195.5t64 -273q0 -65 -10 -109h-768q25 -105 99.5 -159t176.5 -54q68 0 126 29.5t85 73.5l261 2q-47 -154 -173.5 -239t-300.5 -85q-246 0 -397 154t-151 387zM340 610h516q-22 104 -90 154.5 t-158 50.5q-105 0 -174 -53.5t-94 -151.5z" />
<glyph unicode="f" horiz-adv-x="636" d="M10 770v254h148v10q0 217 120 330q107 100 305 100q26 0 54 -2v-254q-17 1 -34 1q-81 0 -127 -33q-54 -41 -54 -142v-10h215v-254h-215v-770h-264v770h-148z" />
<glyph unicode="g" horiz-adv-x="1275" d="M68 528q0 142 67 263t181.5 191.5t248.5 70.5q220 0 340 -156v127h258v-975q0 -98 -30 -179.5t-80.5 -137.5t-118.5 -95t-142.5 -57t-152.5 -18q-135 0 -249 45.5t-187.5 140.5t-73.5 223h264q0 -72 66 -123t180 -51q125 0 195.5 65.5t70.5 186.5v109 q-119 -154 -340 -154q-100 0 -192 41.5t-159 111t-106.5 167t-39.5 204.5zM332 528q0 -123 80.5 -201.5t205.5 -78.5t206 78.5t81 201.5q0 121 -81 200t-206 79t-205.5 -79t-80.5 -200z" />
<glyph unicode="h" horiz-adv-x="1089" d="M121 0v1434h264v-514q88 133 279 133q146 0 238.5 -107t92.5 -291v-655h-264v635q0 84 -45 128t-117 44q-84 0 -134 -51.5t-50 -161.5v-594h-264z" />
<glyph unicode="i" horiz-adv-x="505" d="M121 0v1024h264v-1024h-264zM121 1167v267h264v-267h-264z" />
<glyph unicode="j" horiz-adv-x="540" d="M-27 -184q13 -1 25 -1q76 0 114 33q44 39 44 132v1044h264v-1044q0 -226 -110 -328q-98 -91 -287 -91q-24 0 -50 1v254zM156 1167v267h264v-267h-264z" />
<glyph unicode="k" horiz-adv-x="1058" d="M121 0v1434h264v-861l338 451h305l-389 -506l410 -518h-306l-358 463v-463h-264z" />
<glyph unicode="l" horiz-adv-x="505" d="M121 0v1475h264v-1475h-264z" />
<glyph unicode="m" horiz-adv-x="1570" d="M121 0v1024h264v-100q84 129 246 129q79 0 143 -35t103 -100q110 135 282 135q147 0 232.5 -94.5t85.5 -268.5v-690h-265v670q0 72 -35.5 104.5t-93.5 32.5q-63 0 -107 -40.5t-44 -131.5v-635h-264v670q0 72 -36.5 104.5t-94.5 32.5q-63 0 -107.5 -40.5t-44.5 -131.5 v-635h-264z" />
<glyph unicode="n" horiz-adv-x="1089" d="M121 0v1024h264v-104q88 133 279 133q146 0 238.5 -107t92.5 -291v-655h-264v635q0 84 -45 128t-117 44q-84 0 -134 -51.5t-50 -161.5v-594h-264z" />
<glyph unicode="o" horiz-adv-x="1216" d="M68 512q0 150 72 274.5t196 195.5t272 71q149 0 273.5 -71t197 -195.5t72.5 -274.5t-72.5 -274.5t-197 -195.5t-273.5 -71q-148 0 -272 71t-196 195.5t-72 274.5zM332 512q0 -123 79 -203t197 -80q120 0 199.5 79.5t79.5 203.5t-79.5 203.5t-199.5 79.5q-118 0 -197 -80 t-79 -203z" />
<glyph unicode="p" horiz-adv-x="1282" d="M121 -410v1434h264v-119q119 148 332 148q135 0 250 -71t182.5 -195.5t67.5 -274.5t-67.5 -274.5t-182.5 -195.5t-250 -71q-213 0 -332 148v-529h-264zM385 494q6 -121 85.5 -196t197.5 -75q124 0 204 80.5t80 208.5t-80 208.5t-204 80.5q-118 0 -197.5 -75t-85.5 -196 v-36z" />
<glyph unicode="q" horiz-adv-x="1284" d="M68 512q0 227 146 384t351 157q213 0 334 -150v121h264v-1434h-264v531q-121 -150 -334 -150q-205 0 -351 157t-146 384zM332 512q0 -128 79.5 -208.5t202.5 -80.5q124 0 204.5 80.5t80.5 208.5t-80.5 208.5t-204.5 80.5q-123 0 -202.5 -80.5t-79.5 -208.5z" />
<glyph unicode="r" horiz-adv-x="690" d="M121 0v1024h264v-154q37 88 110.5 131t170.5 43v-294q-20 2 -40 2q-32 0 -62 -6q-48 -10 -89 -37t-65.5 -79t-24.5 -124v-506h-264z" />
<glyph unicode="s" horiz-adv-x="983" d="M78 326h258q0 -59 41.5 -90t114.5 -31q72 0 110.5 24t38.5 68q0 31 -23.5 53t-62.5 33t-88.5 23.5t-101 24t-101 34.5t-88.5 53.5t-62.5 84.5t-23.5 124q0 104 57 179.5t146.5 111t198.5 35.5q78 0 148 -22t125 -65t87.5 -112t32.5 -156h-258q0 58 -38 89.5t-97 31.5 q-64 0 -101 -24t-37 -68q0 -36 30.5 -59t79 -35.5t107 -24.5t117.5 -32.5t107.5 -51.5t79 -89t30.5 -138q0 -105 -57 -180t-149 -110.5t-207 -35.5q-116 0 -207.5 37.5t-149 119.5t-57.5 198z" />
<glyph unicode="t" horiz-adv-x="684" d="M33 770v254h178v328h264v-328h176v-254h-176v-770h-264v770h-178z" />
<glyph unicode="u" horiz-adv-x="1091" d="M94 371v653h264v-635q0 -84 45 -128t117 -44q84 0 135.5 52t51.5 163v592h264v-1024h-264v106q-87 -135 -279 -135q-146 0 -240 107.5t-94 292.5z" />
<glyph unicode="v" horiz-adv-x="1024" d="M6 1024h281l225 -698l225 698h283l-373 -1024h-239h-31z" />
<glyph unicode="w" horiz-adv-x="1484" d="M20 1024h283l199 -700l133 417l-92 283h235l213 -674l193 674h280l-334 -1024h-239h-12l-136 412l-135 -412h-209h-43z" />
<glyph unicode="x" horiz-adv-x="968" d="M10 0l332 524l-315 500h282l174 -276l176 276h283l-317 -500l333 -524h-282l-193 301l-190 -301h-283z" />
<glyph unicode="y" horiz-adv-x="1024" d="M6 1024h281l241 -645l209 645h283l-485 -1434h-281l143 424z" />
<glyph unicode="z" horiz-adv-x="929" d="M68 0v176l432 600h-412v248h768v-176l-434 -600h455v-248h-809z" />
<glyph unicode="{" horiz-adv-x="718" d="M102 592v256q83 -7 122.5 18.5t39.5 108.5v303q0 410 430 381v-254q-86 10 -126 -16.5t-40 -110.5v-303q0 -187 -122 -254q122 -70 122 -256v-303q0 -84 40 -110.5t126 -16.5v-254q-430 -29 -430 381v303q0 83 -39.5 108.5t-122.5 18.5z" />
<glyph unicode="|" horiz-adv-x="530" d="M133 -410v1885h264v-1885h-264z" />
<glyph unicode="}" horiz-adv-x="718" d="M27 35q85 -10 125.5 16.5t40.5 110.5v303q0 187 120 256q-120 66 -120 254v303q0 84 -40.5 110.5t-125.5 16.5v254q216 15 323 -83t107 -298v-303q0 -84 38 -109t121 -18v-256q-83 7 -121 -18t-38 -109v-303q0 -200 -107 -298t-323 -83v254z" />
<glyph unicode="~" horiz-adv-x="1226" d="M92 625q36 134 113 207t178 76.5t221 -50.5q82 -39 130 -55t85.5 -11t58.5 32t42 83l215 -104q-36 -134 -113 -207.5t-178 -76.5t-221 52q-66 31 -108 46t-77.5 20t-57.5 -7.5t-39.5 -37.5t-33.5 -70z" />
<glyph unicode="&#xa1;" d="M115 0l55 543h209l53 -543v-410h-317v410zM129 733v291h291v-291h-291z" />
<glyph unicode="&#xa2;" horiz-adv-x="1159" d="M68 717q0 230 154 385t386 155q40 0 84 -6l60 183h116l-67 -211q123 -45 208 -142t111 -225h-278q-36 84 -121 119l-172 -531q27 -6 59 -6q82 0 145 38t89 104h278q-35 -177 -178.5 -289.5t-333.5 -112.5q-66 0 -139 17l-63 -195h-117l73 233q-135 65 -214.5 194 t-79.5 290zM332 717q0 -73 30.5 -132.5t83.5 -95.5l164 508h-2q-118 0 -197 -79t-79 -201z" />
<glyph unicode="&#xa3;" horiz-adv-x="1198" d="M68 0v272h149v254h-125v246h125v238q0 111 39.5 200t104.5 142.5t143.5 81.5t163.5 28q83 0 161.5 -28t144 -81.5t105 -142.5t39.5 -200v-88h-282v88q0 85 -48 131.5t-120 46.5q-74 0 -122 -46t-48 -132v-238h385v-246h-385v-254h669v-272h-1099z" />
<glyph unicode="&#xa4;" horiz-adv-x="1112" d="M68 305l141 144q-92 116 -92 268t92 268l-141 143l77 78l144 -143q120 86 268 86q146 0 266 -86l146 143l78 -78l-144 -143q92 -116 92 -268t-92 -268l144 -144l-78 -78l-146 146q-116 -86 -266 -86q-151 0 -268 84l-144 -144zM379 717q0 -79 49.5 -129.5t128.5 -50.5 q78 0 128 51t50 129q0 79 -50 129.5t-128 50.5q-79 0 -128.5 -50t-49.5 -130z" />
<glyph unicode="&#xa5;" horiz-adv-x="1230" d="M6 1434h320l290 -525l291 525h320l-408 -693h268v-163h-331v-93h331v-166h-331v-319h-281v319h-330v166h330v93h-330v163h269z" />
<glyph unicode="&#xa6;" horiz-adv-x="530" d="M133 348h264v-758h-264v758zM133 717v758h264v-758h-264z" />
<glyph unicode="&#xa7;" horiz-adv-x="1116" d="M88 666q0 163 129 258q-63 82 -63 202q0 107 56 185t145 114.5t198 36.5q79 0 148.5 -22.5t125.5 -67t88.5 -118t32.5 -167.5h-258q0 71 -38 106.5t-99 35.5q-63 0 -99 -27t-36 -76q0 -19 7.5 -36t25 -33t33.5 -27.5t48 -26.5t51.5 -23.5t60.5 -25t61 -24.5 q56 -23 96.5 -43t86.5 -51.5t74.5 -66t48 -83t19.5 -104.5q0 -167 -129 -269q68 -85 68 -202q0 -109 -57 -187.5t-148.5 -115.5t-206.5 -37q-86 0 -160 22.5t-132 66.5t-91 117t-33 168h258q0 -141 158 -141q71 0 109.5 28.5t38.5 78.5q0 22 -13 42.5t-31 35t-52 31.5 t-60.5 28t-73 30t-74.5 31q-53 23 -93 44.5t-84 54t-71.5 67.5t-46 84.5t-18.5 106.5zM352 680q0 -54 42.5 -90t123.5 -70q16 -6 91 -34t116 -46q41 50 41 111q0 59 -46 95.5t-138 72.5q-19 7 -58 21.5t-71 27t-60 25.5q-41 -50 -41 -113z" />
<glyph unicode="&#xa8;" horiz-adv-x="702" d="M41 1149v242h242v-242h-242zM420 1149v242h242v-242h-242z" />
<glyph unicode="&#xa9;" horiz-adv-x="1615" d="M68 717q0 151 58.5 288.5t157.5 236.5t236.5 157.5t288.5 58.5t288.5 -58.5t236.5 -157.5t157.5 -236.5t58.5 -288.5q0 -202 -99 -372.5t-269.5 -270t-372.5 -99.5t-372.5 99.5t-269.5 270t-99 372.5zM143 717q0 -183 89 -337.5t242.5 -244.5t334.5 -90q180 0 333 90 t242 244.5t89 337.5t-89 337.5t-242 244.5t-333 90q-181 0 -334.5 -90t-242.5 -244.5t-89 -337.5zM410 717q0 165 119 283t286 118q142 0 252 -88t137 -231h-239q-18 40 -59 66t-97 26q-77 0 -124.5 -51.5t-47.5 -122.5t47.5 -122.5t124.5 -51.5q56 0 97 26t59 68h239 q-27 -144 -137 -233t-252 -89q-167 0 -286 118.5t-119 283.5z" />
<glyph unicode="&#xaa;" horiz-adv-x="559" d="M47 1083q0 75 48.5 117.5t119.5 42.5q86 0 139 -43v53q0 78 -73 78q-36 0 -55 -15.5t-19 -41.5h-137q0 88 60 138t151 50q92 0 151.5 -52.5t59.5 -147.5v-326h-138v43q-50 -57 -139 -57q-71 0 -119.5 42.5t-48.5 118.5zM186 1083q0 -26 20.5 -42.5t57.5 -16.5t63.5 16 t26.5 43q0 28 -26 43t-64 15t-58 -15.5t-20 -42.5z" />
<glyph unicode="&#xab;" horiz-adv-x="1116" d="M129 633l225 385h244l-225 -385l225 -383h-244zM518 633l225 385h244l-225 -385l225 -383h-244z" />
<glyph unicode="&#xac;" horiz-adv-x="1126" d="M92 594v248h942v-248v-244h-264v244h-678z" />
<glyph unicode="&#xad;" horiz-adv-x="1034" d="M133 492v253h768v-253h-768z" />
<glyph unicode="&#xae;" horiz-adv-x="1615" d="M68 717q0 151 58.5 288.5t157.5 236.5t236.5 157.5t288.5 58.5t288.5 -58.5t236.5 -157.5t157.5 -236.5t58.5 -288.5q0 -202 -99 -372.5t-269.5 -270t-372.5 -99.5t-372.5 99.5t-269.5 270t-99 372.5zM143 717q0 -183 89 -337.5t242.5 -244.5t334.5 -90q180 0 333 90 t242 244.5t89 337.5t-89 337.5t-242 244.5t-333 90q-181 0 -334.5 -90t-242.5 -244.5t-89 -337.5zM528 338v758h220h106q122 0 204.5 -73t82.5 -185q0 -77 -30.5 -138.5t-84.5 -99.5l182 -262h-237l-146 209h-77v-209h-220zM748 731h69q48 0 76.5 21.5t28.5 60.5 q0 40 -28.5 62t-76.5 22h-69v-166z" />
<glyph unicode="&#xaf;" horiz-adv-x="675" d="M41 1155v215h594v-215h-594z" />
<glyph unicode="&#xb0;" horiz-adv-x="821" d="M68 1321q0 141 98 239.5t246 98.5t246 -98.5t98 -239.5t-97 -239.5t-247 -98.5q-147 0 -245.5 99t-98.5 239zM291 1321q0 -53 34 -88t87 -35q54 0 87 34.5t33 88.5q0 53 -33.5 88t-86.5 35t-87 -35t-34 -88z" />
<glyph unicode="&#xb1;" horiz-adv-x="1136" d="M109 109v247h921v-247h-921zM109 780v248h335v299h248v-299h338v-248h-338v-299h-248v299h-335z" />
<glyph unicode="&#xb4;" horiz-adv-x="563" d="M41 1153h254l227 281h-317z" />
<glyph unicode="&#xb5;" horiz-adv-x="1181" d="M121 -410v1434h264v-635q0 -84 45 -128t117 -44q84 0 134 52t50 163v592h264v-711q0 -31 17.5 -48t48.5 -17h74v-248h-123q-159 0 -232 106q-92 -135 -270 -135q-60 0 -125 21v-402h-264z" />
<glyph unicode="&#xb6;" horiz-adv-x="1370" d="M51 993q0 183 129 312t312 129h247h410h127v-232h-127v-1612h-248v1612h-162v-1612h-247v963q-120 0 -221.5 59t-160.5 160.5t-59 220.5z" />
<glyph unicode="&#xb7;" d="M129 563v293h291v-293h-291z" />
<glyph unicode="&#xb8;" horiz-adv-x="532" d="M41 -256q221 -15 221 41q0 23 -32 34.5t-97 16.5v164h215v-94q60 -14 102 -54.5t42 -105.5q0 -214 -451 -188v186z" />
<glyph unicode="&#xba;" horiz-adv-x="634" d="M47 1192q0 115 78 192.5t192 77.5t192.5 -77.5t78.5 -192.5q0 -114 -78.5 -192t-192.5 -78t-192 78t-78 192zM186 1192q0 -60 37 -96.5t94 -36.5t93 36.5t36 96.5t-36 96.5t-93 36.5t-94 -36.5t-37 -96.5z" />
<glyph unicode="&#xbb;" horiz-adv-x="1116" d="M129 250l225 383l-225 385h244l225 -385l-225 -383h-244zM518 250l225 383l-225 385h244l225 -385l-225 -383h-244z" />
<glyph unicode="&#xbc;" horiz-adv-x="1667" d="M27 1104v219l202 111h220v-820h-220v598zM240 0l819 1434h184l-819 -1434h-184zM958 133v199l265 487h233l-252 -487h137v141h209v-141h84v-199h-84v-133h-209v133h-383z" />
<glyph unicode="&#xbd;" horiz-adv-x="1665" d="M27 1104v219l202 111h220v-820h-220v598zM240 0l819 1434h184l-819 -1434h-184zM989 557q0 140 88 215.5t221 75.5q132 0 215.5 -70t83.5 -198q0 -119 -139 -254l-133 -125h287v-201h-615v145l310 304q69 69 69 126q0 33 -21 52.5t-57 19.5q-88 0 -88 -90h-221z" />
<glyph unicode="&#xbe;" horiz-adv-x="1832" d="M29 862h221q0 -39 25 -61.5t71 -22.5t71 22.5t25 61.5q0 38 -25 60t-71 22h-123v125l137 166h-299v199h564v-162l-144 -176q87 -27 135 -87t48 -147q0 -132 -85 -203t-233 -71q-149 0 -233 71t-84 203zM406 0l819 1434h184l-819 -1434h-184zM1124 133v199l265 487h233 l-252 -487h137v141h209v-141h84v-199h-84v-133h-209v133h-383z" />
<glyph unicode="&#xbf;" horiz-adv-x="1118" d="M92 -35q0 72 25.5 137t63.5 109.5t83 90t83 80t63.5 77t25.5 84.5h283q0 -63 -25.5 -120.5t-63.5 -98.5t-83 -84.5t-83 -79t-63.5 -81.5t-25.5 -93q0 -71 48.5 -110.5t135.5 -39.5q96 0 153.5 49t57.5 140h283q0 -114 -40.5 -204t-111 -145.5t-159.5 -84.5t-191 -29 q-88 0 -169.5 26.5t-146.5 75.5t-104 127t-39 174zM432 733v291h291v-291h-291z" />
<glyph unicode="&#xc0;" horiz-adv-x="1337" d="M6 0l488 1434h350l487 -1434h-307l-82 258h-549l-82 -258h-305zM346 1843h318l163 -280h-254zM477 522h381l-190 598z" />
<glyph unicode="&#xc1;" horiz-adv-x="1337" d="M6 0l488 1434h350l487 -1434h-307l-82 258h-549l-82 -258h-305zM477 522h381l-190 598zM504 1563l164 280h317l-227 -280h-254z" />
<glyph unicode="&#xc2;" horiz-adv-x="1337" d="M6 0l488 1434h350l487 -1434h-307l-82 258h-549l-82 -258h-305zM309 1546l217 297h244h25l217 -297h-262l-88 133l-91 -133h-262zM477 522h381l-190 598z" />
<glyph unicode="&#xc3;" horiz-adv-x="1337" d="M6 0l488 1434h350l487 -1434h-307l-82 258h-549l-82 -258h-305zM322 1556q0 95 22 161.5t58.5 99.5t84.5 42t100.5 -6t106.5 -49q60 -41 83.5 -33t23.5 82h215q0 -94 -22 -161t-59 -99.5t-85.5 -41.5t-101 6t-105.5 49q-60 41 -84 32.5t-24 -82.5h-213zM477 522h381 l-190 598z" />
<glyph unicode="&#xc4;" horiz-adv-x="1337" d="M6 0l488 1434h350l487 -1434h-307l-82 258h-549l-82 -258h-305zM358 1559v241h242v-241h-242zM477 522h381l-190 598zM737 1559v241h242v-241h-242z" />
<glyph unicode="&#xc5;" horiz-adv-x="1337" d="M6 0l488 1434h350l487 -1434h-307l-82 258h-549l-82 -258h-305zM410 1757q0 104 72.5 173t185.5 69q115 0 186.5 -69t71.5 -173q0 -106 -71.5 -175t-186.5 -69q-113 0 -185.5 69.5t-72.5 174.5zM477 522h381l-190 598zM588 1757q0 -35 21.5 -56.5t58.5 -21.5 q40 0 61 21.5t21 56.5q0 34 -21 55t-61 21q-37 0 -58.5 -21.5t-21.5 -54.5z" />
<glyph unicode="&#xc6;" horiz-adv-x="1802" d="M0 0l848 1434h166h182h530v-271h-530v-307h483v-264h-483v-322h541v-270h-723h-92v258h-453l-152 -258h-317zM625 522h297v504z" />
<glyph unicode="&#xc7;" horiz-adv-x="1540" d="M68 717q0 208 95 378t266 268.5t384 98.5q255 0 450 -151t246 -389h-297q-38 121 -147.5 193.5t-251.5 72.5q-209 0 -337 -131t-128 -340q0 -207 128 -338t337 -131q142 0 251.5 71.5t147.5 192.5h297q-44 -208 -201.5 -352t-375.5 -178v-76q60 -14 101.5 -54.5 t41.5 -105.5q0 -214 -450 -188v186q221 -15 221 41q0 23 -32 34.5t-97 16.5v141q-286 34 -467.5 241.5t-181.5 498.5z" />
<glyph unicode="&#xc8;" horiz-adv-x="1050" d="M133 0v1434h283h557v-271h-557v-307h506v-264h-506v-322h567v-270h-758h-92zM231 1843h318l164 -280h-254z" />
<glyph unicode="&#xc9;" horiz-adv-x="1050" d="M133 0v1434h283h557v-271h-557v-307h506v-264h-506v-322h567v-270h-758h-92zM391 1563l164 280h317l-227 -280h-254z" />
<glyph unicode="&#xca;" horiz-adv-x="1050" d="M133 0v1434h283h557v-271h-557v-307h506v-264h-506v-322h567v-270h-758h-92zM197 1546l217 297h243h25l217 -297h-262l-88 133l-90 -133h-262z" />
<glyph unicode="&#xcb;" horiz-adv-x="1050" d="M133 0v1434h283h557v-271h-557v-307h506v-264h-506v-322h567v-270h-758h-92zM244 1559v241h241v-241h-241zM623 1559v241h241v-241h-241z" />
<glyph unicode="&#xcc;" d="M-49 1843l227 -280h254l-164 280h-317zM133 0v1434h283v-1434h-283z" />
<glyph unicode="&#xcd;" d="M111 1563h254l227 280h-318zM133 0v1434h283v-1434h-283z" />
<glyph unicode="&#xce;" d="M-84 1546l217 297h244h24l217 -297h-262l-88 133l-90 -133h-262zM133 0v1434h283v-1434h-283z" />
<glyph unicode="&#xcf;" d="M-37 1559v241h242v-241h-242zM133 0v1434h283v-1434h-283zM342 1559v241h242v-241h-242z" />
<glyph unicode="&#xd0;" horiz-adv-x="1572" d="M47 575v254h158v605h282h328q194 0 352.5 -94.5t248 -259t89.5 -363.5t-89.5 -363.5t-248 -259t-352.5 -94.5h-518h-92v575h-158zM487 270h328q186 0 303 124.5t117 322.5t-117 322t-303 124h-328v-334h328v-254h-328v-305z" />
<glyph unicode="&#xd1;" horiz-adv-x="1320" d="M133 0v1434h215l559 -885v885h281v-1434h-215l-557 887v-887h-283zM315 1556q0 95 22 161.5t58.5 99.5t85 42t101 -6t106.5 -49q60 -41 83.5 -33t23.5 82h215q0 -94 -22 -161t-59 -99.5t-85.5 -41.5t-101 6t-105.5 49q-60 41 -84.5 32.5t-24.5 -82.5h-213z" />
<glyph unicode="&#xd2;" horiz-adv-x="1622" d="M68 717q0 206 99 377.5t269.5 269.5t374.5 98t375 -98t270.5 -269.5t99.5 -377.5t-99.5 -377.5t-270.5 -270t-375 -98.5q-153 0 -290.5 58t-236.5 157.5t-157.5 238t-58.5 292.5zM348 717q0 -204 133 -336.5t330 -132.5t330 132.5t133 336.5q0 205 -133 338t-330 133 t-330 -133t-133 -338zM489 1860l228 -281h254l-164 281h-318z" />
<glyph unicode="&#xd3;" horiz-adv-x="1622" d="M68 717q0 206 99 377.5t269.5 269.5t374.5 98t375 -98t270.5 -269.5t99.5 -377.5t-99.5 -377.5t-270.5 -270t-375 -98.5q-153 0 -290.5 58t-236.5 157.5t-157.5 238t-58.5 292.5zM348 717q0 -204 133 -336.5t330 -132.5t330 132.5t133 336.5q0 205 -133 338t-330 133 t-330 -133t-133 -338zM647 1579h254l227 281h-317z" />
<glyph unicode="&#xd4;" horiz-adv-x="1622" d="M68 717q0 206 99 377.5t269.5 269.5t374.5 98t375 -98t270.5 -269.5t99.5 -377.5t-99.5 -377.5t-270.5 -270t-375 -98.5q-153 0 -290.5 58t-236.5 157.5t-157.5 238t-58.5 292.5zM348 717q0 -204 133 -336.5t330 -132.5t330 132.5t133 336.5q0 205 -133 338t-330 133 t-330 -133t-133 -338zM453 1563l217 297h243h25l217 -297h-262l-88 133l-90 -133h-262z" />
<glyph unicode="&#xd5;" horiz-adv-x="1622" d="M68 717q0 206 99 377.5t269.5 269.5t374.5 98t375 -98t270.5 -269.5t99.5 -377.5t-99.5 -377.5t-270.5 -270t-375 -98.5q-153 0 -290.5 58t-236.5 157.5t-157.5 238t-58.5 292.5zM348 717q0 -204 133 -336.5t330 -132.5t330 132.5t133 336.5q0 205 -133 338t-330 133 t-330 -133t-133 -338zM465 1573q0 95 22 161.5t58.5 99.5t85 42t101 -6t106.5 -49q60 -41 83 -33t23 82h215q0 -94 -22 -161t-59 -100t-85.5 -42t-101 6t-105.5 49q-60 41 -84 33t-24 -82h-213z" />
<glyph unicode="&#xd6;" horiz-adv-x="1622" d="M68 717q0 206 99 377.5t269.5 269.5t374.5 98t375 -98t270.5 -269.5t99.5 -377.5t-99.5 -377.5t-270.5 -270t-375 -98.5q-153 0 -290.5 58t-236.5 157.5t-157.5 238t-58.5 292.5zM348 717q0 -204 133 -336.5t330 -132.5t330 132.5t133 336.5q0 205 -133 338t-330 133 t-330 -133t-133 -338zM502 1575v242h241v-242h-241zM881 1575v242h241v-242h-241z" />
<glyph unicode="&#xd7;" horiz-adv-x="1048" d="M102 469l248 248l-248 248l177 172l245 -246l246 246l176 -172l-248 -248l248 -248l-176 -172l-246 246l-245 -246z" />
<glyph unicode="&#xd8;" horiz-adv-x="1634" d="M80 717q0 155 58.5 293.5t158 237t237 156.5t289.5 58q221 0 404 -116l71 88h205l-153 -187q104 -102 161.5 -238.5t57.5 -291.5q0 -154 -59 -292.5t-158.5 -238t-237.5 -157.5t-291 -58q-235 0 -422 129l-84 -100h-204l168 203q-96 102 -148.5 234t-52.5 280zM360 717 q0 -169 99 -299l592 715q-107 55 -228 55q-197 0 -330 -133t-133 -338zM578 313q114 -65 245 -65q197 0 330 132.5t133 336.5q0 186 -112 317z" />
<glyph unicode="&#xd9;" horiz-adv-x="1269" d="M113 438v996h282v-973q0 -102 59 -157.5t181 -55.5q242 0 242 213v973h280v-996q0 -147 -71 -254.5t-187.5 -160t-263.5 -52.5t-263.5 52.5t-187.5 160t-71 254.5zM313 1843l228 -280h254l-164 280h-318z" />
<glyph unicode="&#xda;" horiz-adv-x="1269" d="M113 438v996h282v-973q0 -102 59 -157.5t181 -55.5q242 0 242 213v973h280v-996q0 -147 -71 -254.5t-187.5 -160t-263.5 -52.5t-263.5 52.5t-187.5 160t-71 254.5zM471 1563h254l227 280h-317z" />
<glyph unicode="&#xdb;" horiz-adv-x="1269" d="M113 438v996h282v-973q0 -102 59 -157.5t181 -55.5q242 0 242 213v973h280v-996q0 -147 -71 -254.5t-187.5 -160t-263.5 -52.5t-263.5 52.5t-187.5 160t-71 254.5zM276 1546l218 297h243h25l217 -297h-262l-88 133l-90 -133h-263z" />
<glyph unicode="&#xdc;" horiz-adv-x="1269" d="M113 438v996h282v-973q0 -102 59 -157.5t181 -55.5q242 0 242 213v973h280v-996q0 -147 -71 -254.5t-187.5 -160t-263.5 -52.5t-263.5 52.5t-187.5 160t-71 254.5zM326 1559v241h241v-241h-241zM705 1559v241h241v-241h-241z" />
<glyph unicode="&#xdd;" horiz-adv-x="1230" d="M6 1434h320l290 -525l291 525h320l-471 -797v-637h-281v637zM451 1563l163 280h318l-227 -280h-254z" />
<glyph unicode="&#xde;" horiz-adv-x="1204" d="M133 0v1434h283v-240h260q198 0 337.5 -139.5t139.5 -337.5q0 -97 -37.5 -184.5t-101.5 -151.5t-152.5 -101.5t-185.5 -37.5h-260v-242h-283zM416 506h260q80 0 137 61t57 150t-57 151t-137 62h-260v-424z" />
<glyph unicode="&#xdf;" horiz-adv-x="1050" d="M121 0v1061q0 183 111.5 292t306.5 109q178 0 279.5 -87.5t101.5 -223.5q0 -61 -23 -119t-50 -93.5t-50 -74.5t-23 -67q0 -33 26 -74t63 -85t74 -93.5t63 -114.5t26 -133q0 -59 -15 -108t-50 -91.5t-88.5 -70t-135.5 -38.5t-186 -1v233q211 -22 211 121q0 38 -25 84 t-61 90t-72 88.5t-61 91.5t-25 86q0 37 21.5 80.5t47 78t47 81t21.5 88.5q0 51 -35 81t-90 30q-63 0 -104 -38.5t-41 -121.5v-1061h-264z" />
<glyph unicode="&#xe0;" horiz-adv-x="1042" d="M68 295q0 78 28 140.5t76 101t109.5 59t130.5 20.5q174 0 278 -90v109q0 172 -160 172q-72 0 -114.5 -35.5t-42.5 -95.5h-258q0 175 119.5 276t295.5 101q86 0 161 -26t133 -75t91 -126.5t33 -174.5v-651h-258v88q-96 -117 -278 -117q-145 0 -244.5 85t-99.5 239z M209 1450h317l164 -281h-254zM332 295q0 -58 42.5 -92.5t127.5 -34.5q86 0 137 35.5t51 91.5q0 59 -50.5 93t-137.5 34q-85 0 -127.5 -34.5t-42.5 -92.5z" />
<glyph unicode="&#xe1;" horiz-adv-x="1042" d="M68 295q0 78 28 140.5t76 101t109.5 59t130.5 20.5q174 0 278 -90v109q0 172 -160 172q-72 0 -114.5 -35.5t-42.5 -95.5h-258q0 175 119.5 276t295.5 101q86 0 161 -26t133 -75t91 -126.5t33 -174.5v-651h-258v88q-96 -117 -278 -117q-145 0 -244.5 85t-99.5 239z M332 295q0 -58 42.5 -92.5t127.5 -34.5q86 0 137 35.5t51 91.5q0 59 -50.5 93t-137.5 34q-85 0 -127.5 -34.5t-42.5 -92.5zM369 1169l163 281h318l-227 -281h-254z" />
<glyph unicode="&#xe2;" horiz-adv-x="1042" d="M68 295q0 78 28 140.5t76 101t109.5 59t130.5 20.5q174 0 278 -90v109q0 172 -160 172q-72 0 -114.5 -35.5t-42.5 -95.5h-258q0 175 119.5 276t295.5 101q86 0 161 -26t133 -75t91 -126.5t33 -174.5v-651h-258v88q-96 -117 -278 -117q-145 0 -244.5 85t-99.5 239z M174 1153l217 297h244h24l218 -297h-263l-88 133l-90 -133h-262zM332 295q0 -58 42.5 -92.5t127.5 -34.5q86 0 137 35.5t51 91.5q0 59 -50.5 93t-137.5 34q-85 0 -127.5 -34.5t-42.5 -92.5z" />
<glyph unicode="&#xe3;" horiz-adv-x="1042" d="M68 295q0 78 28 140.5t76 101t109.5 59t130.5 20.5q174 0 278 -90v109q0 172 -160 172q-72 0 -114.5 -35.5t-42.5 -95.5h-258q0 175 119.5 276t295.5 101q86 0 161 -26t133 -75t91 -126.5t33 -174.5v-651h-258v88q-96 -117 -278 -117q-145 0 -244.5 85t-99.5 239z M186 1163q0 95 22 161.5t58.5 99.5t85 42t101 -6t106.5 -49q60 -41 83.5 -33t23.5 82h215q0 -94 -22 -161t-59 -100t-85.5 -42t-101 6t-105.5 49q-60 41 -84.5 33t-24.5 -82h-213zM332 295q0 -58 42.5 -92.5t127.5 -34.5q86 0 137 35.5t51 91.5q0 59 -50.5 93t-137.5 34 q-85 0 -127.5 -34.5t-42.5 -92.5z" />
<glyph unicode="&#xe4;" horiz-adv-x="1042" d="M68 295q0 78 28 140.5t76 101t109.5 59t130.5 20.5q174 0 278 -90v109q0 172 -160 172q-72 0 -114.5 -35.5t-42.5 -95.5h-258q0 175 119.5 276t295.5 101q86 0 161 -26t133 -75t91 -126.5t33 -174.5v-651h-258v88q-96 -117 -278 -117q-145 0 -244.5 85t-99.5 239z M221 1165v242h242v-242h-242zM332 295q0 -58 42.5 -92.5t127.5 -34.5q86 0 137 35.5t51 91.5q0 59 -50.5 93t-137.5 34q-85 0 -127.5 -34.5t-42.5 -92.5zM600 1165v242h242v-242h-242z" />
<glyph unicode="&#xe5;" horiz-adv-x="1042" d="M68 295q0 78 28 140.5t76 101t109.5 59t130.5 20.5q174 0 278 -90v109q0 172 -160 172q-72 0 -114.5 -35.5t-42.5 -95.5h-258q0 175 119.5 276t295.5 101q86 0 161 -26t133 -75t91 -126.5t33 -174.5v-651h-258v88q-96 -117 -278 -117q-145 0 -244.5 85t-99.5 239z M272 1364q0 104 72.5 173t185.5 69q115 0 186.5 -69t71.5 -173q0 -106 -71.5 -175t-186.5 -69q-113 0 -185.5 69.5t-72.5 174.5zM332 295q0 -58 42.5 -92.5t127.5 -34.5q86 0 137 35.5t51 91.5q0 59 -50.5 93t-137.5 34q-85 0 -127.5 -34.5t-42.5 -92.5zM451 1364 q0 -35 21 -56.5t58 -21.5q40 0 61 21.5t21 56.5q0 34 -21 55t-61 21q-37 0 -58 -21.5t-21 -54.5z" />
<glyph unicode="&#xe6;" horiz-adv-x="1710" d="M68 295q0 78 28 140.5t76 101t109.5 59t130.5 20.5q170 0 278 -86v105l90 6l-90 -6q0 172 -160 172q-72 0 -114.5 -35.5t-42.5 -95.5h-258q0 117 57 204t148 130t200 43q115 0 203.5 -47.5t138.5 -135.5q117 183 340 183q138 0 241 -73t155.5 -194.5t52.5 -273.5 q0 -61 -11 -109h-677q21 -106 82.5 -159.5t150.5 -53.5q112 0 164 103l260 2q-31 -150 -144 -235t-259 -85q-235 0 -353 170q-103 -174 -385 -174q-187 0 -299 87t-112 237zM332 295q0 -58 44 -92.5t128 -34.5q87 0 136.5 35t49.5 92q0 59 -50.5 93t-137.5 34 q-85 0 -127.5 -34.5t-42.5 -92.5zM963 610h430q-16 104 -72.5 154.5t-134.5 50.5q-92 0 -148.5 -53.5t-74.5 -151.5z" />
<glyph unicode="&#xe7;" horiz-adv-x="1159" d="M68 512q0 151 69.5 274.5t193.5 195t277 71.5q190 0 333.5 -113.5t178.5 -288.5h-278q-28 65 -90.5 103.5t-143.5 38.5q-118 0 -197 -79.5t-79 -201.5q0 -121 79 -200t197 -79q82 0 145 38t89 104h278q-29 -148 -136 -253.5t-259 -137.5v-78q60 -14 101.5 -54.5 t41.5 -105.5q0 -214 -450 -188v186q221 -15 221 41q0 23 -32 34.5t-97 16.5v144q-196 34 -319 181.5t-123 350.5z" />
<glyph unicode="&#xe8;" horiz-adv-x="1179" d="M68 512q0 152 67 275t191.5 194.5t283.5 71.5q147 0 264.5 -72.5t181.5 -195.5t64 -273q0 -65 -10 -109h-768q25 -105 99.5 -159t176.5 -54q68 0 126 29.5t85 73.5l261 2q-47 -154 -173.5 -239t-300.5 -85q-246 0 -397 154t-151 387zM289 1442h317l164 -281h-254z M340 610h516q-22 104 -90 154.5t-158 50.5q-105 0 -174 -53.5t-94 -151.5z" />
<glyph unicode="&#xe9;" horiz-adv-x="1179" d="M68 512q0 152 67 275t191.5 194.5t283.5 71.5q147 0 264.5 -72.5t181.5 -195.5t64 -273q0 -65 -10 -109h-768q25 -105 99.5 -159t176.5 -54q68 0 126 29.5t85 73.5l261 2q-47 -154 -173.5 -239t-300.5 -85q-246 0 -397 154t-151 387zM340 610h516q-22 104 -90 154.5 t-158 50.5q-105 0 -174 -53.5t-94 -151.5zM449 1161l163 281h318l-228 -281h-253z" />
<glyph unicode="&#xea;" horiz-adv-x="1179" d="M68 512q0 152 67 275t191.5 194.5t283.5 71.5q147 0 264.5 -72.5t181.5 -195.5t64 -273q0 -65 -10 -109h-768q25 -105 99.5 -159t176.5 -54q68 0 126 29.5t85 73.5l261 2q-47 -154 -173.5 -239t-300.5 -85q-246 0 -397 154t-151 387zM254 1145l217 297h244h24l217 -297 h-262l-88 133l-90 -133h-262zM340 610h516q-22 104 -90 154.5t-158 50.5q-105 0 -174 -53.5t-94 -151.5z" />
<glyph unicode="&#xeb;" horiz-adv-x="1179" d="M68 512q0 152 67 275t191.5 194.5t283.5 71.5q147 0 264.5 -72.5t181.5 -195.5t64 -273q0 -65 -10 -109h-768q25 -105 99.5 -159t176.5 -54q68 0 126 29.5t85 73.5l261 2q-47 -154 -173.5 -239t-300.5 -85q-246 0 -397 154t-151 387zM303 1157v242h242v-242h-242z M340 610h516q-22 104 -90 154.5t-158 50.5q-105 0 -174 -53.5t-94 -151.5zM682 1157v242h242v-242h-242z" />
<glyph unicode="&#xec;" horiz-adv-x="505" d="M-14 1434l137 -297h254l-88 297h-303zM121 0v1024h264v-1024h-264z" />
<glyph unicode="&#xed;" horiz-adv-x="505" d="M121 0v1024h264v-1024h-264zM123 1137h254l135 297h-303z" />
<glyph unicode="&#xee;" horiz-adv-x="505" d="M-74 1137l193 297h243h25l191 -297h-261l-65 108l-64 -108h-262zM121 0v1024h264v-1024h-264z" />
<glyph unicode="&#xef;" horiz-adv-x="505" d="M-43 1149v242h242v-242h-242zM121 0v1024h264v-1024h-264zM307 1149v242h240v-242h-240z" />
<glyph unicode="&#xf0;" horiz-adv-x="1169" d="M68 471q0 99 39.5 188t106 151t158.5 95.5t193 26.5l-119 164l-260 -129v184l162 80l-147 203h305l67 -93l242 121v-184l-141 -72l336 -448q94 -130 94 -287q0 -150 -73 -265t-189.5 -173t-255.5 -58t-255.5 58t-189.5 173t-73 265zM332 471q0 -114 71.5 -181t182.5 -67 q110 0 182 67t72 181q0 83 -43 143q-76 97 -211 97q-112 0 -183 -65.5t-71 -174.5z" />
<glyph unicode="&#xf1;" horiz-adv-x="1089" d="M121 0v1024h264v-104q88 133 279 133q146 0 238.5 -107t92.5 -291v-655h-264v635q0 84 -45 128t-117 44q-84 0 -134 -51.5t-50 -161.5v-594h-264zM207 1163q0 95 22 161.5t58.5 99.5t85 42t101 -6t106.5 -49q60 -41 83 -33t23 82h215q0 -94 -22 -161t-59 -100t-85.5 -42 t-101 6t-105.5 49q-60 41 -84 33t-24 -82h-213z" />
<glyph unicode="&#xf2;" horiz-adv-x="1216" d="M68 512q0 150 72 274.5t196 195.5t272 71q149 0 273.5 -71t197 -195.5t72.5 -274.5t-72.5 -274.5t-197 -195.5t-273.5 -71q-148 0 -272 71t-196 195.5t-72 274.5zM287 1450l227 -281h254l-164 281h-317zM332 512q0 -123 79 -203t197 -80q120 0 199.5 79.5t79.5 203.5 t-79.5 203.5t-199.5 79.5q-118 0 -197 -80t-79 -203z" />
<glyph unicode="&#xf3;" horiz-adv-x="1216" d="M68 512q0 150 72 274.5t196 195.5t272 71q149 0 273.5 -71t197 -195.5t72.5 -274.5t-72.5 -274.5t-197 -195.5t-273.5 -71q-148 0 -272 71t-196 195.5t-72 274.5zM332 512q0 -123 79 -203t197 -80q120 0 199.5 79.5t79.5 203.5t-79.5 203.5t-199.5 79.5q-118 0 -197 -80 t-79 -203zM444 1169h254l228 281h-318z" />
<glyph unicode="&#xf4;" horiz-adv-x="1216" d="M68 512q0 150 72 274.5t196 195.5t272 71q149 0 273.5 -71t197 -195.5t72.5 -274.5t-72.5 -274.5t-197 -195.5t-273.5 -71q-148 0 -272 71t-196 195.5t-72 274.5zM250 1153l217 297h244h24l217 -297h-262l-88 133l-90 -133h-262zM332 512q0 -123 79 -203t197 -80 q120 0 199.5 79.5t79.5 203.5t-79.5 203.5t-199.5 79.5q-118 0 -197 -80t-79 -203z" />
<glyph unicode="&#xf5;" horiz-adv-x="1216" d="M68 512q0 150 72 274.5t196 195.5t272 71q149 0 273.5 -71t197 -195.5t72.5 -274.5t-72.5 -274.5t-197 -195.5t-273.5 -71q-148 0 -272 71t-196 195.5t-72 274.5zM262 1163q0 95 22 161.5t58.5 99.5t85 42t101 -6t106.5 -49q60 -41 83 -33t23 82h215q0 -95 -22 -161.5 t-59 -99.5t-85 -42t-100.5 6t-105.5 49q-60 41 -84.5 33t-24.5 -82h-213zM332 512q0 -123 79 -203t197 -80q120 0 199.5 79.5t79.5 203.5t-79.5 203.5t-199.5 79.5q-118 0 -197 -80t-79 -203z" />
<glyph unicode="&#xf6;" horiz-adv-x="1216" d="M68 512q0 150 72 274.5t196 195.5t272 71q149 0 273.5 -71t197 -195.5t72.5 -274.5t-72.5 -274.5t-197 -195.5t-273.5 -71q-148 0 -272 71t-196 195.5t-72 274.5zM299 1165v242h242v-242h-242zM332 512q0 -123 79 -203t197 -80q120 0 199.5 79.5t79.5 203.5t-79.5 203.5 t-199.5 79.5q-118 0 -197 -80t-79 -203zM678 1165v242h242v-242h-242z" />
<glyph unicode="&#xf7;" horiz-adv-x="1157" d="M92 594v248h973v-248h-973zM412 319q0 70 48.5 118t119.5 48q70 0 117.5 -47.5t47.5 -118.5t-47.5 -119t-117.5 -48q-71 0 -119.5 48.5t-48.5 118.5zM412 1116q0 70 48.5 118t119.5 48q70 0 117.5 -47.5t47.5 -118.5t-47.5 -119.5t-117.5 -48.5t-119 49t-49 119z" />
<glyph unicode="&#xf8;" horiz-adv-x="1216" d="M68 512q0 150 72 274.5t196 195.5t272 71q156 0 285 -80l43 51h168l-109 -131q156 -156 156 -381q0 -150 -72.5 -274.5t-197 -195.5t-273.5 -71q-163 0 -305 92l-51 -63h-170l123 147q-137 153 -137 365zM332 512q0 -93 43 -160l350 418q-55 25 -117 25q-118 0 -197 -80 t-79 -203zM471 264q59 -35 137 -35q120 0 199.5 79.5t79.5 203.5q0 101 -60 180z" />
<glyph unicode="&#xf9;" horiz-adv-x="1091" d="M94 371v653h264v-635q0 -84 45 -128t117 -44q84 0 135.5 52t51.5 163v592h264v-1024h-264v106q-87 -135 -279 -135q-146 0 -240 107.5t-94 292.5zM225 1434h318l164 -281h-254z" />
<glyph unicode="&#xfa;" horiz-adv-x="1091" d="M94 371v653h264v-635q0 -84 45 -128t117 -44q84 0 135.5 52t51.5 163v592h264v-1024h-264v106q-87 -135 -279 -135q-146 0 -240 107.5t-94 292.5zM383 1153l164 281h317l-227 -281h-254z" />
<glyph unicode="&#xfb;" horiz-adv-x="1091" d="M94 371v653h264v-635q0 -84 45 -128t117 -44q84 0 135.5 52t51.5 163v592h264v-1024h-264v106q-87 -135 -279 -135q-146 0 -240 107.5t-94 292.5zM188 1137l218 297h243h25l217 -297h-262l-88 133l-90 -133h-263z" />
<glyph unicode="&#xfc;" horiz-adv-x="1091" d="M94 371v653h264v-635q0 -84 45 -128t117 -44q84 0 135.5 52t51.5 163v592h264v-1024h-264v106q-87 -135 -279 -135q-146 0 -240 107.5t-94 292.5zM238 1149v242h241v-242h-241zM616 1149v242h242v-242h-242z" />
<glyph unicode="&#xfd;" horiz-adv-x="1024" d="M6 1024h281l241 -645l209 645h283l-485 -1434h-281l143 424zM348 1153h254l227 281h-317z" />
<glyph unicode="&#xfe;" horiz-adv-x="1282" d="M121 -410v1844h264v-531q117 150 332 150q135 0 250 -71t182.5 -195.5t67.5 -274.5t-67.5 -274.5t-182.5 -195.5t-250 -71q-215 0 -332 150v-531h-264zM385 512q0 -128 80 -208.5t203 -80.5q124 0 204 80.5t80 208.5t-80 208.5t-204 80.5q-123 0 -203 -80.5t-80 -208.5z " />
<glyph unicode="&#xff;" horiz-adv-x="1024" d="M6 1024h281l241 -645l209 645h283l-485 -1434h-281l143 424zM203 1149v242h241v-242h-241zM582 1149v242h241v-242h-241z" />
<glyph unicode="&#x152;" horiz-adv-x="1875" d="M68 717q0 155 55 293t150.5 237.5t230 157t287.5 57.5q106 0 204 -28h281h522v-271h-522v-307h477v-264h-477v-322h532v-270h-721h-92q-101 -29 -204 -29q-203 0 -369.5 99t-260 269.5t-93.5 377.5zM348 717q0 -206 124 -337.5t319 -131.5q122 0 204 31v878 q-95 31 -204 31q-195 0 -319 -132t-124 -339z" />
<glyph unicode="&#x153;" horiz-adv-x="1998" d="M68 512q0 150 69.5 274.5t191.5 195.5t271 71q135 0 242.5 -60.5t173.5 -167.5q62 107 169 167.5t251 60.5q148 0 263.5 -72.5t177.5 -195.5t62 -273q0 -65 -10 -109h-768q25 -105 99.5 -159t177.5 -54q68 0 126 29.5t85 73.5l260 2q-47 -154 -170.5 -239t-296.5 -85 q-149 0 -257.5 60t-170.5 166q-65 -105 -172 -165.5t-242 -60.5q-149 0 -271 71t-191.5 195.5t-69.5 274.5zM332 512q0 -124 78 -203.5t198 -79.5t199.5 79.5t79.5 203.5t-79.5 203.5t-199.5 79.5t-198 -79.5t-78 -203.5zM1159 610h516q-22 104 -90 154.5t-158 50.5 q-105 0 -174 -53.5t-94 -151.5z" />
<glyph unicode="&#x178;" horiz-adv-x="1230" d="M6 1434h320l290 -525l291 525h320l-471 -797v-637h-281v637zM305 1559v241h242v-241h-242zM684 1559v241h242v-241h-242z" />
<glyph unicode="&#x2c6;" horiz-adv-x="784" d="M41 1137l217 297h244h24l217 -297h-262l-90 133l-88 -133h-262z" />
<glyph unicode="&#x2dc;" horiz-adv-x="776" d="M41 1147q0 94 22 161t59 100t85.5 42t101 -6t105.5 -49q60 -41 84 -33t24 82h213q0 -95 -22 -161.5t-58.5 -99.5t-85 -42t-101 6t-106.5 49q-58 41 -82 33t-24 -82h-215z" />
<glyph unicode="&#x2000;" horiz-adv-x="999" />
<glyph unicode="&#x2001;" horiz-adv-x="1999" />
<glyph unicode="&#x2002;" horiz-adv-x="999" />
<glyph unicode="&#x2003;" horiz-adv-x="1999" />
<glyph unicode="&#x2004;" horiz-adv-x="666" />
<glyph unicode="&#x2005;" horiz-adv-x="499" />
<glyph unicode="&#x2006;" horiz-adv-x="333" />
<glyph unicode="&#x2007;" horiz-adv-x="333" />
<glyph unicode="&#x2008;" horiz-adv-x="249" />
<glyph unicode="&#x2009;" horiz-adv-x="399" />
<glyph unicode="&#x200a;" horiz-adv-x="111" />
<glyph unicode="&#x2010;" horiz-adv-x="1034" d="M133 492v253h768v-253h-768z" />
<glyph unicode="&#x2011;" horiz-adv-x="1034" d="M133 492v253h768v-253h-768z" />
<glyph unicode="&#x2012;" horiz-adv-x="1034" d="M133 492v253h768v-253h-768z" />
<glyph unicode="&#x2013;" horiz-adv-x="1320" d="M133 492v253h1055v-253h-1055z" />
<glyph unicode="&#x2014;" horiz-adv-x="1525" d="M133 492v253h1260v-253h-1260z" />
<glyph unicode="&#x2018;" d="M129 868v293q0 130 77 206t214 79v-119q-71 -3 -104 -41t-33 -125h137v-293h-291z" />
<glyph unicode="&#x2019;" d="M129 858v119q71 3 103 41t32 125h-135v291h291v-291q0 -131 -76.5 -206.5t-214.5 -78.5z" />
<glyph unicode="&#x201a;" d="M129 0v293h291v-293q0 -130 -77 -206t-214 -79v119q71 3 103 41t32 125h-135z" />
<glyph unicode="&#x201c;" horiz-adv-x="927" d="M129 868v293q0 130 77 206t214 79v-119q-71 -3 -103 -41t-32 -125h135v-293h-291zM508 868v293q0 130 77 206t214 79v-119q-71 -3 -104 -41t-33 -125h137v-293h-291z" />
<glyph unicode="&#x201d;" horiz-adv-x="927" d="M129 858v119q71 3 103 41t32 125h-135v291h291v-291q0 -131 -76.5 -206.5t-214.5 -78.5zM508 858v119q71 3 103 41t32 125h-135v293h291v-293q0 -130 -77 -206t-214 -79z" />
<glyph unicode="&#x201e;" horiz-adv-x="927" d="M129 0v293h291v-293q0 -130 -77 -206t-214 -79v119q71 3 103 41t32 125h-135zM508 0v293h291v-293q0 -130 -77 -206t-214 -79v119q71 3 103 41t32 125h-135z" />
<glyph unicode="&#x2022;" horiz-adv-x="737" d="M88 721q0 116 83.5 197t201.5 81q115 0 196.5 -81.5t81.5 -196.5q0 -118 -81 -201.5t-197 -83.5q-119 0 -202 83t-83 202z" />
<glyph unicode="&#x2026;" horiz-adv-x="1480" d="M129 0v293h291v-293h-291zM594 0v293h293v-293h-293zM1061 0v293h291v-293h-291z" />
<glyph unicode="&#x202f;" horiz-adv-x="399" />
<glyph unicode="&#x2039;" horiz-adv-x="727" d="M129 633l225 385h244l-225 -385l225 -383h-244z" />
<glyph unicode="&#x203a;" horiz-adv-x="727" d="M129 250l225 383l-225 385h244l225 -385l-225 -383h-244z" />
<glyph unicode="&#x205f;" horiz-adv-x="499" />
<glyph unicode="&#x20ac;" horiz-adv-x="1320" d="M37 526v160h127v31v49h-127v158h143q44 251 188 394.5t369 143.5q223 0 363 -140.5t170 -381.5h-285q-13 119 -78 183.5t-170 64.5q-212 0 -272 -264h422v-158h-441v-49v-31h441v-160h-424q53 -278 274 -278q108 0 174 67.5t78 194.5h285q-27 -249 -169 -394t-368 -145 q-229 0 -374.5 149t-184.5 406h-141z" />
<glyph unicode="&#x2122;" horiz-adv-x="954" d="M68 1319v115h335v-115h-106v-295h-123v295h-106zM444 1024v410h119h12l91 -183l90 183h131v-410h-123v213l-70 -129h-59l-72 137v-221h-119z" />
<glyph unicode="&#x25fc;" horiz-adv-x="1024" d="M0 0v1024h1024v-1024h-1024z" />
<glyph unicode="&#xfb03;" horiz-adv-x="1675" d="M10 770v254h148v10q0 217 120.5 330t358.5 98v-254q-106 8 -160.5 -32.5t-54.5 -141.5v-10h215h88v31q0 428 481 428q103 0 242 -29v-242q-150 17 -242 17q-109 0 -163 -37.5t-54 -136.5v-31h565v-1024h-264v770h-301v-770h-264v770h-145h-158v-770h-264v770h-148z" />
<glyph unicode="&#xfb04;" horiz-adv-x="1675" d="M10 770v254h148v10q0 217 120.5 330t358.5 98v-254q-106 8 -160.5 -32.5t-54.5 -141.5v-10h215h88v31q0 428 481 428q137 0 348 -43v-1440h-264v1249q-29 2 -84 2q-217 0 -217 -196v-31h170v-254h-170v-770h-264v770h-145h-158v-770h-264v770h-148z" />
</font>
</defs>
</svg>
